<svg width="142" height="13" viewBox="0 0 142 13" fill="none" xmlns="http://www.w3.org/2000/svg">
    <path
        d="M10.9432 4.14773H9.17045C9.10227 3.76894 8.97538 3.43561 8.78977 3.14773C8.60417 2.85985 8.37689 2.61553 8.10795 2.41477C7.83902 2.21401 7.53788 2.0625 7.20455 1.96023C6.875 1.85795 6.52462 1.80682 6.15341 1.80682C5.48295 1.80682 4.88258 1.97538 4.35227 2.3125C3.82576 2.64962 3.40909 3.14394 3.10227 3.79545C2.79924 4.44697 2.64773 5.24242 2.64773 6.18182C2.64773 7.12879 2.79924 7.92803 3.10227 8.57955C3.40909 9.23106 3.82765 9.72348 4.35795 10.0568C4.88826 10.3902 5.48485 10.5568 6.14773 10.5568C6.51515 10.5568 6.86364 10.5076 7.19318 10.4091C7.52652 10.3068 7.82765 10.1572 8.09659 9.96023C8.36553 9.76326 8.5928 9.52273 8.77841 9.23864C8.9678 8.95076 9.09848 8.62121 9.17045 8.25L10.9432 8.25568C10.8485 8.82765 10.6648 9.35417 10.392 9.83523C10.1231 10.3125 9.77652 10.7254 9.35227 11.0739C8.93182 11.4186 8.45076 11.6856 7.90909 11.875C7.36742 12.0644 6.77652 12.1591 6.13636 12.1591C5.12879 12.1591 4.23106 11.9205 3.44318 11.4432C2.6553 10.9621 2.03409 10.2746 1.57955 9.38068C1.12879 8.48674 0.903409 7.42045 0.903409 6.18182C0.903409 4.93939 1.13068 3.87311 1.58523 2.98295C2.03977 2.08901 2.66098 1.40341 3.44886 0.926136C4.23674 0.445075 5.13258 0.204545 6.13636 0.204545C6.75379 0.204545 7.32955 0.29356 7.86364 0.471591C8.40152 0.645833 8.88447 0.903409 9.3125 1.24432C9.74053 1.58144 10.0947 1.99432 10.375 2.48295C10.6553 2.9678 10.8447 3.52273 10.9432 4.14773ZM12.9077 12V3.27273H14.5497V4.65909H14.6406C14.7997 4.18939 15.08 3.82008 15.4815 3.55114C15.8868 3.27841 16.3452 3.14205 16.8565 3.14205C16.9626 3.14205 17.0876 3.14583 17.2315 3.15341C17.3793 3.16098 17.4948 3.17045 17.5781 3.18182V4.80682C17.5099 4.78788 17.3887 4.76705 17.2145 4.74432C17.0402 4.7178 16.866 4.70455 16.6918 4.70455C16.2902 4.70455 15.9323 4.78977 15.6179 4.96023C15.3073 5.12689 15.0611 5.35985 14.8793 5.65909C14.6974 5.95455 14.6065 6.29167 14.6065 6.67045V12H12.9077ZM22.4972 12.1761C21.6373 12.1761 20.8968 11.9924 20.2756 11.625C19.6581 11.2538 19.1809 10.733 18.8438 10.0625C18.5104 9.38826 18.3438 8.59848 18.3438 7.69318C18.3438 6.79924 18.5104 6.01136 18.8438 5.32955C19.1809 4.64773 19.6506 4.11553 20.2528 3.73295C20.8589 3.35038 21.5672 3.15909 22.3778 3.15909C22.8703 3.15909 23.3475 3.24053 23.8097 3.40341C24.2718 3.56629 24.6866 3.82197 25.054 4.17045C25.4214 4.51894 25.7112 4.97159 25.9233 5.52841C26.1354 6.08144 26.2415 6.75379 26.2415 7.54545V8.14773H19.304V6.875H24.5767C24.5767 6.42803 24.4858 6.0322 24.304 5.6875C24.1222 5.33902 23.8665 5.06439 23.5369 4.86364C23.2112 4.66288 22.8286 4.5625 22.3892 4.5625C21.9119 4.5625 21.4953 4.67992 21.1392 4.91477C20.7869 5.14583 20.5142 5.44886 20.321 5.82386C20.1316 6.19508 20.0369 6.59848 20.0369 7.03409V8.02841C20.0369 8.61174 20.1392 9.10795 20.3438 9.51705C20.5521 9.92614 20.8419 10.2386 21.2131 10.4545C21.5843 10.6667 22.018 10.7727 22.5142 10.7727C22.8362 10.7727 23.1297 10.7273 23.3949 10.6364C23.66 10.5417 23.8892 10.4015 24.0824 10.2159C24.2756 10.0303 24.4233 9.80114 24.5256 9.52841L26.1335 9.81818C26.0047 10.2917 25.7737 10.7064 25.4403 11.0625C25.1108 11.4148 24.696 11.6894 24.196 11.8864C23.6998 12.0795 23.1335 12.1761 22.4972 12.1761ZM30.6662 12.1932C30.1132 12.1932 29.6132 12.0909 29.1662 11.8864C28.7192 11.678 28.3651 11.3769 28.1037 10.983C27.8461 10.589 27.7173 10.1061 27.7173 9.53409C27.7173 9.04167 27.812 8.63636 28.0014 8.31818C28.1908 8 28.4465 7.74811 28.7685 7.5625C29.0904 7.37689 29.4503 7.23674 29.848 7.14205C30.2457 7.04735 30.651 6.97538 31.0639 6.92614C31.5866 6.86553 32.0109 6.81629 32.3366 6.77841C32.6624 6.73674 32.8991 6.67045 33.0469 6.57955C33.1946 6.48864 33.2685 6.34091 33.2685 6.13636V6.09659C33.2685 5.60038 33.1283 5.21591 32.848 4.94318C32.5715 4.67045 32.1586 4.53409 31.6094 4.53409C31.0374 4.53409 30.5866 4.66098 30.2571 4.91477C29.9313 5.16477 29.706 5.44318 29.581 5.75L27.9844 5.38636C28.1738 4.85606 28.4503 4.42803 28.8139 4.10227C29.1813 3.77273 29.6037 3.53409 30.081 3.38636C30.5582 3.23485 31.0601 3.15909 31.5866 3.15909C31.9351 3.15909 32.3045 3.20076 32.6946 3.28409C33.0885 3.36364 33.456 3.51136 33.7969 3.72727C34.1416 3.94318 34.4238 4.25189 34.6435 4.65341C34.8632 5.05114 34.973 5.56818 34.973 6.20455V12H33.3139V10.8068H33.2457C33.1359 11.0265 32.9711 11.2424 32.7514 11.4545C32.5317 11.6667 32.2495 11.8428 31.9048 11.983C31.5601 12.1231 31.1473 12.1932 30.6662 12.1932ZM31.0355 10.8295C31.5052 10.8295 31.9067 10.7367 32.2401 10.5511C32.5772 10.3655 32.8329 10.1231 33.0071 9.82386C33.1851 9.52083 33.2741 9.19697 33.2741 8.85227V7.72727C33.2135 7.78788 33.0961 7.8447 32.9219 7.89773C32.7514 7.94697 32.5563 7.99053 32.3366 8.02841C32.117 8.0625 31.9029 8.0947 31.6946 8.125C31.4863 8.15152 31.312 8.17424 31.1719 8.19318C30.8423 8.23485 30.5412 8.30492 30.2685 8.40341C29.9995 8.50189 29.7836 8.64394 29.6207 8.82955C29.4616 9.01136 29.3821 9.25379 29.3821 9.55682C29.3821 9.97727 29.5374 10.2955 29.848 10.5114C30.1586 10.7235 30.5545 10.8295 31.0355 10.8295ZM41.3097 3.27273V4.63636H36.5426V3.27273H41.3097ZM37.821 1.18182H39.5199V9.4375C39.5199 9.76705 39.5691 10.0152 39.6676 10.1818C39.7661 10.3447 39.893 10.4564 40.0483 10.517C40.2074 10.5739 40.3797 10.6023 40.5653 10.6023C40.7017 10.6023 40.821 10.5928 40.9233 10.5739C41.0256 10.5549 41.1051 10.5398 41.1619 10.5284L41.4688 11.9318C41.3703 11.9697 41.2301 12.0076 41.0483 12.0455C40.8665 12.0871 40.6392 12.1098 40.3665 12.1136C39.9195 12.1212 39.5028 12.0417 39.1165 11.875C38.7301 11.7083 38.4176 11.4508 38.179 11.1023C37.9403 10.7538 37.821 10.3163 37.821 9.78977V1.18182ZM46.8565 12.1761C45.9967 12.1761 45.2562 11.9924 44.6349 11.625C44.0175 11.2538 43.5402 10.733 43.2031 10.0625C42.8698 9.38826 42.7031 8.59848 42.7031 7.69318C42.7031 6.79924 42.8698 6.01136 43.2031 5.32955C43.5402 4.64773 44.0099 4.11553 44.6122 3.73295C45.2183 3.35038 45.9266 3.15909 46.7372 3.15909C47.2296 3.15909 47.7069 3.24053 48.169 3.40341C48.6312 3.56629 49.0459 3.82197 49.4134 4.17045C49.7808 4.51894 50.0705 4.97159 50.2827 5.52841C50.4948 6.08144 50.6009 6.75379 50.6009 7.54545V8.14773H43.6634V6.875H48.9361C48.9361 6.42803 48.8452 6.0322 48.6634 5.6875C48.4815 5.33902 48.2259 5.06439 47.8963 4.86364C47.5705 4.66288 47.188 4.5625 46.7486 4.5625C46.2713 4.5625 45.8546 4.67992 45.4986 4.91477C45.1463 5.14583 44.8736 5.44886 44.6804 5.82386C44.491 6.19508 44.3963 6.59848 44.3963 7.03409V8.02841C44.3963 8.61174 44.4986 9.10795 44.7031 9.51705C44.9115 9.92614 45.2012 10.2386 45.5724 10.4545C45.9437 10.6667 46.3774 10.7727 46.8736 10.7727C47.1955 10.7727 47.4891 10.7273 47.7543 10.6364C48.0194 10.5417 48.2486 10.4015 48.4418 10.2159C48.6349 10.0303 48.7827 9.80114 48.8849 9.52841L50.4929 9.81818C50.3641 10.2917 50.133 10.7064 49.7997 11.0625C49.4702 11.4148 49.0554 11.6894 48.5554 11.8864C48.0592 12.0795 47.4929 12.1761 46.8565 12.1761ZM59.2599 12.1932C58.7069 12.1932 58.2069 12.0909 57.7599 11.8864C57.313 11.678 56.9588 11.3769 56.6974 10.983C56.4399 10.589 56.3111 10.1061 56.3111 9.53409C56.3111 9.04167 56.4058 8.63636 56.5952 8.31818C56.7846 8 57.0402 7.74811 57.3622 7.5625C57.6842 7.37689 58.044 7.23674 58.4418 7.14205C58.8395 7.04735 59.2448 6.97538 59.6577 6.92614C60.1804 6.86553 60.6046 6.81629 60.9304 6.77841C61.2562 6.73674 61.4929 6.67045 61.6406 6.57955C61.7884 6.48864 61.8622 6.34091 61.8622 6.13636V6.09659C61.8622 5.60038 61.7221 5.21591 61.4418 4.94318C61.1652 4.67045 60.7524 4.53409 60.2031 4.53409C59.6312 4.53409 59.1804 4.66098 58.8509 4.91477C58.5251 5.16477 58.2997 5.44318 58.1747 5.75L56.5781 5.38636C56.7675 4.85606 57.044 4.42803 57.4077 4.10227C57.7751 3.77273 58.1974 3.53409 58.6747 3.38636C59.152 3.23485 59.6539 3.15909 60.1804 3.15909C60.5289 3.15909 60.8982 3.20076 61.2884 3.28409C61.6823 3.36364 62.0497 3.51136 62.3906 3.72727C62.7353 3.94318 63.0175 4.25189 63.2372 4.65341C63.4569 5.05114 63.5668 5.56818 63.5668 6.20455V12H61.9077V10.8068H61.8395C61.7296 11.0265 61.5649 11.2424 61.3452 11.4545C61.1255 11.6667 60.8433 11.8428 60.4986 11.983C60.1539 12.1231 59.741 12.1932 59.2599 12.1932ZM59.6293 10.8295C60.099 10.8295 60.5005 10.7367 60.8338 10.5511C61.1709 10.3655 61.4266 10.1231 61.6009 9.82386C61.7789 9.52083 61.8679 9.19697 61.8679 8.85227V7.72727C61.8073 7.78788 61.6899 7.8447 61.5156 7.89773C61.3452 7.94697 61.1501 7.99053 60.9304 8.02841C60.7107 8.0625 60.4967 8.0947 60.2884 8.125C60.08 8.15152 59.9058 8.17424 59.7656 8.19318C59.4361 8.23485 59.1349 8.30492 58.8622 8.40341C58.5933 8.50189 58.3774 8.64394 58.2145 8.82955C58.0554 9.01136 57.9759 9.25379 57.9759 9.55682C57.9759 9.97727 58.1312 10.2955 58.4418 10.5114C58.7524 10.7235 59.1482 10.8295 59.6293 10.8295ZM67.5284 6.81818V12H65.8295V3.27273H67.4602V4.69318H67.5682C67.7689 4.23106 68.0833 3.85985 68.5114 3.57955C68.9432 3.29924 69.4867 3.15909 70.142 3.15909C70.7367 3.15909 71.2576 3.28409 71.7045 3.53409C72.1515 3.7803 72.4981 4.14773 72.7443 4.63636C72.9905 5.125 73.1136 5.72917 73.1136 6.44886V12H71.4148V6.65341C71.4148 6.02083 71.25 5.52652 70.9205 5.17045C70.5909 4.81061 70.1383 4.63068 69.5625 4.63068C69.1686 4.63068 68.8182 4.71591 68.5114 4.88636C68.2083 5.05682 67.9678 5.30682 67.7898 5.63636C67.6155 5.96212 67.5284 6.35606 67.5284 6.81818ZM80.7457 12H78.8821L83.0696 0.363636H85.098L89.2855 12H87.4219L84.1321 2.47727H84.0412L80.7457 12ZM81.0582 7.44318H87.1037V8.92045H81.0582V7.44318ZM94.3651 12.1761C93.5204 12.1761 92.7931 11.9848 92.1832 11.6023C91.5772 11.2159 91.1113 10.6837 90.7855 10.0057C90.4598 9.32765 90.2969 8.55114 90.2969 7.67614C90.2969 6.78977 90.4635 6.00758 90.7969 5.32955C91.1302 4.64773 91.5999 4.11553 92.206 3.73295C92.812 3.35038 93.526 3.15909 94.348 3.15909C95.0109 3.15909 95.6018 3.2822 96.1207 3.52841C96.6397 3.77083 97.0582 4.11174 97.3764 4.55114C97.6984 4.99053 97.8897 5.50379 97.9503 6.09091H96.2969C96.206 5.68182 95.9976 5.32955 95.6719 5.03409C95.3499 4.73864 94.9181 4.59091 94.3764 4.59091C93.9029 4.59091 93.4882 4.71591 93.1321 4.96591C92.7798 5.21212 92.5052 5.56439 92.3082 6.02273C92.1113 6.47727 92.0128 7.01515 92.0128 7.63636C92.0128 8.27273 92.1094 8.82197 92.3026 9.28409C92.4957 9.74621 92.7685 10.1042 93.1207 10.358C93.4768 10.6117 93.8954 10.7386 94.3764 10.7386C94.6984 10.7386 94.9901 10.6799 95.2514 10.5625C95.5166 10.4413 95.7382 10.2689 95.9162 10.0455C96.098 9.82197 96.2249 9.55303 96.2969 9.23864H97.9503C97.8897 9.80303 97.706 10.3068 97.3991 10.75C97.0923 11.1932 96.6813 11.5417 96.1662 11.7955C95.6548 12.0492 95.0545 12.1761 94.3651 12.1761ZM103.443 12.1761C102.598 12.1761 101.871 11.9848 101.261 11.6023C100.655 11.2159 100.189 10.6837 99.8636 10.0057C99.5379 9.32765 99.375 8.55114 99.375 7.67614C99.375 6.78977 99.5417 6.00758 99.875 5.32955C100.208 4.64773 100.678 4.11553 101.284 3.73295C101.89 3.35038 102.604 3.15909 103.426 3.15909C104.089 3.15909 104.68 3.2822 105.199 3.52841C105.718 3.77083 106.136 4.11174 106.455 4.55114C106.777 4.99053 106.968 5.50379 107.028 6.09091H105.375C105.284 5.68182 105.076 5.32955 104.75 5.03409C104.428 4.73864 103.996 4.59091 103.455 4.59091C102.981 4.59091 102.566 4.71591 102.21 4.96591C101.858 5.21212 101.583 5.56439 101.386 6.02273C101.189 6.47727 101.091 7.01515 101.091 7.63636C101.091 8.27273 101.188 8.82197 101.381 9.28409C101.574 9.74621 101.847 10.1042 102.199 10.358C102.555 10.6117 102.973 10.7386 103.455 10.7386C103.777 10.7386 104.068 10.6799 104.33 10.5625C104.595 10.4413 104.816 10.2689 104.994 10.0455C105.176 9.82197 105.303 9.55303 105.375 9.23864H107.028C106.968 9.80303 106.784 10.3068 106.477 10.75C106.17 11.1932 105.759 11.5417 105.244 11.7955C104.733 12.0492 104.133 12.1761 103.443 12.1761ZM112.521 12.1761C111.703 12.1761 110.989 11.9886 110.379 11.6136C109.769 11.2386 109.296 10.714 108.959 10.0398C108.622 9.36553 108.453 8.57765 108.453 7.67614C108.453 6.77083 108.622 5.97917 108.959 5.30114C109.296 4.62311 109.769 4.09659 110.379 3.72159C110.989 3.34659 111.703 3.15909 112.521 3.15909C113.339 3.15909 114.054 3.34659 114.663 3.72159C115.273 4.09659 115.747 4.62311 116.084 5.30114C116.421 5.97917 116.589 6.77083 116.589 7.67614C116.589 8.57765 116.421 9.36553 116.084 10.0398C115.747 10.714 115.273 11.2386 114.663 11.6136C114.054 11.9886 113.339 12.1761 112.521 12.1761ZM112.527 10.75C113.057 10.75 113.497 10.6098 113.845 10.3295C114.194 10.0492 114.451 9.67614 114.618 9.21023C114.788 8.74432 114.874 8.23106 114.874 7.67045C114.874 7.11364 114.788 6.60227 114.618 6.13636C114.451 5.66667 114.194 5.28977 113.845 5.00568C113.497 4.72159 113.057 4.57955 112.527 4.57955C111.993 4.57955 111.55 4.72159 111.197 5.00568C110.849 5.28977 110.589 5.66667 110.419 6.13636C110.252 6.60227 110.169 7.11364 110.169 7.67045C110.169 8.23106 110.252 8.74432 110.419 9.21023C110.589 9.67614 110.849 10.0492 111.197 10.3295C111.55 10.6098 111.993 10.75 112.527 10.75ZM124.014 8.38068V3.27273H125.719V12H124.048V10.4886H123.957C123.757 10.9545 123.435 11.3428 122.991 11.6534C122.552 11.9602 122.005 12.1136 121.349 12.1136C120.789 12.1136 120.293 11.9905 119.861 11.7443C119.433 11.4943 119.096 11.125 118.849 10.6364C118.607 10.1477 118.486 9.54356 118.486 8.82386V3.27273H120.185V8.61932C120.185 9.21402 120.349 9.6875 120.679 10.0398C121.009 10.392 121.437 10.5682 121.963 10.5682C122.281 10.5682 122.598 10.4886 122.912 10.3295C123.23 10.1705 123.493 9.92992 123.702 9.60795C123.914 9.28598 124.018 8.87689 124.014 8.38068ZM129.7 6.81818V12H128.001V3.27273H129.632V4.69318H129.74C129.941 4.23106 130.255 3.85985 130.683 3.57955C131.115 3.29924 131.659 3.15909 132.314 3.15909C132.909 3.15909 133.429 3.28409 133.876 3.53409C134.323 3.7803 134.67 4.14773 134.916 4.63636C135.162 5.125 135.286 5.72917 135.286 6.44886V12H133.587V6.65341C133.587 6.02083 133.422 5.52652 133.092 5.17045C132.763 4.81061 132.31 4.63068 131.734 4.63068C131.34 4.63068 130.99 4.71591 130.683 4.88636C130.38 5.05682 130.14 5.30682 129.962 5.63636C129.787 5.96212 129.7 6.35606 129.7 6.81818ZM141.638 3.27273V4.63636H136.871V3.27273H141.638ZM138.149 1.18182H139.848V9.4375C139.848 9.76705 139.897 10.0152 139.996 10.1818C140.094 10.3447 140.221 10.4564 140.376 10.517C140.536 10.5739 140.708 10.6023 140.893 10.6023C141.03 10.6023 141.149 10.5928 141.251 10.5739C141.354 10.5549 141.433 10.5398 141.49 10.5284L141.797 11.9318C141.698 11.9697 141.558 12.0076 141.376 12.0455C141.195 12.0871 140.967 12.1098 140.695 12.1136C140.248 12.1212 139.831 12.0417 139.445 11.875C139.058 11.7083 138.746 11.4508 138.507 11.1023C138.268 10.7538 138.149 10.3163 138.149 9.78977V1.18182Z"
        fill="url(#paint0_linear_935_4968)" />
    <defs>
        <linearGradient id="paint0_linear_935_4968" x1="18.2722" y1="27.78" x2="120.279" y2="-51.3059"
            gradientUnits="userSpaceOnUse">
            <stop stop-color="#CB176B" />
            <stop offset="0.855879" stop-color="#0A2E22" />
        </linearGradient>
    </defs>
</svg>